<mxfile host="app.diagrams.net" agent="Mozilla/5.0 (X11; Linux x86_64) AppleWebKit/537.36 (KHTML, like Gecko) Chrome/128.0.0.0 Safari/537.36" version="24.7.12">
  <diagram name="Página-1" id="j20kvrwOSDrC1cvXkH_f">
    <mxGraphModel dx="2447" dy="894" grid="1" gridSize="10" guides="1" tooltips="1" connect="1" arrows="1" fold="1" page="1" pageScale="1" pageWidth="827" pageHeight="1169" math="0" shadow="0">
      <root>
        <mxCell id="0" />
        <mxCell id="1" parent="0" />
        <mxCell id="Y74k4ZJzD4JUl2HbKA5U-3" value="" style="edgeStyle=orthogonalEdgeStyle;rounded=0;orthogonalLoop=1;jettySize=auto;html=1;fillColor=#f8cecc;strokeColor=#b85450;" edge="1" parent="1" source="Y74k4ZJzD4JUl2HbKA5U-1" target="Y74k4ZJzD4JUl2HbKA5U-2">
          <mxGeometry relative="1" as="geometry" />
        </mxCell>
        <mxCell id="Y74k4ZJzD4JUl2HbKA5U-34" style="edgeStyle=orthogonalEdgeStyle;rounded=0;orthogonalLoop=1;jettySize=auto;html=1;" edge="1" parent="1" source="Y74k4ZJzD4JUl2HbKA5U-1" target="Y74k4ZJzD4JUl2HbKA5U-18">
          <mxGeometry relative="1" as="geometry">
            <Array as="points">
              <mxPoint x="55" y="540" />
              <mxPoint x="510" y="540" />
            </Array>
          </mxGeometry>
        </mxCell>
        <mxCell id="Y74k4ZJzD4JUl2HbKA5U-62" value="EIOS SEM RESUMO E SEM CHUNK" style="edgeLabel;html=1;align=center;verticalAlign=middle;resizable=0;points=[];" vertex="1" connectable="0" parent="Y74k4ZJzD4JUl2HbKA5U-34">
          <mxGeometry x="-0.8666" y="2" relative="1" as="geometry">
            <mxPoint x="17" as="offset" />
          </mxGeometry>
        </mxCell>
        <mxCell id="Y74k4ZJzD4JUl2HbKA5U-1" value="EIOS" style="shape=cylinder3;whiteSpace=wrap;html=1;boundedLbl=1;backgroundOutline=1;size=15;" vertex="1" parent="1">
          <mxGeometry x="10.000000000000227" y="620" width="90" height="120" as="geometry" />
        </mxCell>
        <mxCell id="Y74k4ZJzD4JUl2HbKA5U-58" value="" style="edgeStyle=orthogonalEdgeStyle;rounded=0;orthogonalLoop=1;jettySize=auto;html=1;fillColor=#f8cecc;strokeColor=#b85450;" edge="1" parent="1" source="Y74k4ZJzD4JUl2HbKA5U-2" target="Y74k4ZJzD4JUl2HbKA5U-57">
          <mxGeometry relative="1" as="geometry" />
        </mxCell>
        <mxCell id="Y74k4ZJzD4JUl2HbKA5U-61" style="edgeStyle=orthogonalEdgeStyle;rounded=0;orthogonalLoop=1;jettySize=auto;html=1;" edge="1" parent="1">
          <mxGeometry relative="1" as="geometry">
            <mxPoint x="510" y="397" as="targetPoint" />
            <mxPoint x="225" y="647" as="sourcePoint" />
            <Array as="points">
              <mxPoint x="225" y="540" />
              <mxPoint x="510" y="540" />
            </Array>
          </mxGeometry>
        </mxCell>
        <mxCell id="Y74k4ZJzD4JUl2HbKA5U-64" value="resumido sem chunks" style="edgeLabel;html=1;align=center;verticalAlign=middle;resizable=0;points=[];" vertex="1" connectable="0" parent="Y74k4ZJzD4JUl2HbKA5U-61">
          <mxGeometry x="-0.784" y="-2" relative="1" as="geometry">
            <mxPoint as="offset" />
          </mxGeometry>
        </mxCell>
        <mxCell id="Y74k4ZJzD4JUl2HbKA5U-2" value="Resumo" style="whiteSpace=wrap;html=1;strokeColor=#FF0000;" vertex="1" parent="1">
          <mxGeometry x="165.00000000000023" y="650" width="120" height="60" as="geometry" />
        </mxCell>
        <mxCell id="Y74k4ZJzD4JUl2HbKA5U-7" value="" style="edgeStyle=orthogonalEdgeStyle;rounded=0;orthogonalLoop=1;jettySize=auto;html=1;" edge="1" parent="1" source="Y74k4ZJzD4JUl2HbKA5U-6" target="Y74k4ZJzD4JUl2HbKA5U-2">
          <mxGeometry relative="1" as="geometry" />
        </mxCell>
        <mxCell id="Y74k4ZJzD4JUl2HbKA5U-6" value="&lt;div&gt;&lt;br&gt;&lt;/div&gt;&amp;nbsp;- LLma&lt;div&gt;- Bert&lt;/div&gt;&lt;div&gt;- N-&lt;span style=&quot;background-color: initial;&quot;&gt;Gram&lt;/span&gt;&lt;/div&gt;" style="text;html=1;align=left;verticalAlign=middle;whiteSpace=wrap;rounded=0;" vertex="1" parent="1">
          <mxGeometry x="195" y="750" width="60" height="30" as="geometry" />
        </mxCell>
        <mxCell id="Y74k4ZJzD4JUl2HbKA5U-14" value="" style="edgeStyle=orthogonalEdgeStyle;rounded=0;orthogonalLoop=1;jettySize=auto;html=1;fillColor=#f8cecc;strokeColor=#b85450;" edge="1" parent="1" source="Y74k4ZJzD4JUl2HbKA5U-8" target="Y74k4ZJzD4JUl2HbKA5U-13">
          <mxGeometry relative="1" as="geometry" />
        </mxCell>
        <mxCell id="Y74k4ZJzD4JUl2HbKA5U-25" style="edgeStyle=orthogonalEdgeStyle;rounded=0;orthogonalLoop=1;jettySize=auto;html=1;entryX=0.5;entryY=1;entryDx=0;entryDy=0;" edge="1" parent="1" source="Y74k4ZJzD4JUl2HbKA5U-8" target="Y74k4ZJzD4JUl2HbKA5U-18">
          <mxGeometry relative="1" as="geometry">
            <Array as="points">
              <mxPoint x="120" y="367" />
              <mxPoint x="120" y="450" />
              <mxPoint x="510" y="450" />
            </Array>
          </mxGeometry>
        </mxCell>
        <mxCell id="Y74k4ZJzD4JUl2HbKA5U-63" value="notícia sem resumir" style="edgeLabel;html=1;align=center;verticalAlign=middle;resizable=0;points=[];" vertex="1" connectable="0" parent="Y74k4ZJzD4JUl2HbKA5U-25">
          <mxGeometry x="-0.1051" y="3" relative="1" as="geometry">
            <mxPoint as="offset" />
          </mxGeometry>
        </mxCell>
        <mxCell id="Y74k4ZJzD4JUl2HbKA5U-8" value="&lt;div&gt;&lt;span style=&quot;background-color: initial;&quot;&gt;Query&lt;/span&gt;&lt;br&gt;&lt;/div&gt;" style="text;html=1;align=center;verticalAlign=middle;whiteSpace=wrap;rounded=0;" vertex="1" parent="1">
          <mxGeometry x="55" y="352" width="60" height="30" as="geometry" />
        </mxCell>
        <mxCell id="Y74k4ZJzD4JUl2HbKA5U-12" value="" style="edgeStyle=orthogonalEdgeStyle;rounded=0;orthogonalLoop=1;jettySize=auto;html=1;" edge="1" parent="1" source="Y74k4ZJzD4JUl2HbKA5U-10" target="Y74k4ZJzD4JUl2HbKA5U-8">
          <mxGeometry relative="1" as="geometry" />
        </mxCell>
        <mxCell id="Y74k4ZJzD4JUl2HbKA5U-10" value="(Notícia)" style="text;html=1;align=center;verticalAlign=middle;resizable=0;points=[];autosize=1;strokeColor=none;fillColor=none;" vertex="1" parent="1">
          <mxGeometry x="50" y="290" width="70" height="30" as="geometry" />
        </mxCell>
        <mxCell id="Y74k4ZJzD4JUl2HbKA5U-24" style="edgeStyle=orthogonalEdgeStyle;rounded=0;orthogonalLoop=1;jettySize=auto;html=1;entryX=0;entryY=0.5;entryDx=0;entryDy=0;fillColor=#f8cecc;strokeColor=#b85450;" edge="1" parent="1" source="Y74k4ZJzD4JUl2HbKA5U-13" target="Y74k4ZJzD4JUl2HbKA5U-18">
          <mxGeometry relative="1" as="geometry" />
        </mxCell>
        <mxCell id="Y74k4ZJzD4JUl2HbKA5U-36" value="notócia resumida" style="edgeLabel;html=1;align=center;verticalAlign=middle;resizable=0;points=[];" vertex="1" connectable="0" parent="Y74k4ZJzD4JUl2HbKA5U-24">
          <mxGeometry x="-0.2242" y="-1" relative="1" as="geometry">
            <mxPoint as="offset" />
          </mxGeometry>
        </mxCell>
        <mxCell id="Y74k4ZJzD4JUl2HbKA5U-13" value="Resumo" style="whiteSpace=wrap;html=1;strokeColor=#ff0000;" vertex="1" parent="1">
          <mxGeometry x="165" y="337" width="120" height="60" as="geometry" />
        </mxCell>
        <mxCell id="Y74k4ZJzD4JUl2HbKA5U-28" value="" style="edgeStyle=orthogonalEdgeStyle;rounded=0;orthogonalLoop=1;jettySize=auto;html=1;exitX=1;exitY=0.5;exitDx=0;exitDy=0;" edge="1" parent="1" source="Y74k4ZJzD4JUl2HbKA5U-18">
          <mxGeometry relative="1" as="geometry">
            <mxPoint x="610" y="366.62" as="sourcePoint" />
            <mxPoint x="730" y="366.62" as="targetPoint" />
          </mxGeometry>
        </mxCell>
        <mxCell id="Y74k4ZJzD4JUl2HbKA5U-30" value="saída query" style="edgeLabel;html=1;align=center;verticalAlign=middle;resizable=0;points=[];" vertex="1" connectable="0" parent="Y74k4ZJzD4JUl2HbKA5U-28">
          <mxGeometry x="-0.086" y="3" relative="1" as="geometry">
            <mxPoint as="offset" />
          </mxGeometry>
        </mxCell>
        <mxCell id="Y74k4ZJzD4JUl2HbKA5U-18" value="Modelo de Embedding" style="rounded=0;whiteSpace=wrap;html=1;fillColor=#dae8fc;strokeColor=#6c8ebf;" vertex="1" parent="1">
          <mxGeometry x="450" y="337" width="120" height="60" as="geometry" />
        </mxCell>
        <mxCell id="Y74k4ZJzD4JUl2HbKA5U-23" value="" style="edgeStyle=orthogonalEdgeStyle;rounded=0;orthogonalLoop=1;jettySize=auto;html=1;" edge="1" parent="1" source="Y74k4ZJzD4JUl2HbKA5U-22" target="Y74k4ZJzD4JUl2HbKA5U-18">
          <mxGeometry relative="1" as="geometry" />
        </mxCell>
        <mxCell id="Y74k4ZJzD4JUl2HbKA5U-22" value="- mxbai-embed-large&lt;div&gt;- nomic-embed-text&lt;br&gt;&lt;/div&gt;&lt;div style=&quot;&quot;&gt;- all-minilm&lt;br&gt;&lt;/div&gt;&lt;div&gt;&lt;br&gt;&lt;/div&gt;&lt;div&gt;&lt;br&gt;&lt;/div&gt;" style="text;html=1;align=left;verticalAlign=middle;whiteSpace=wrap;rounded=0;" vertex="1" parent="1">
          <mxGeometry x="450" y="210" width="120" height="30" as="geometry" />
        </mxCell>
        <mxCell id="Y74k4ZJzD4JUl2HbKA5U-40" style="edgeStyle=orthogonalEdgeStyle;rounded=0;orthogonalLoop=1;jettySize=auto;html=1;entryX=0;entryY=0.5;entryDx=0;entryDy=0;" edge="1" parent="1" source="Y74k4ZJzD4JUl2HbKA5U-27" target="Y74k4ZJzD4JUl2HbKA5U-37">
          <mxGeometry relative="1" as="geometry" />
        </mxCell>
        <mxCell id="Y74k4ZJzD4JUl2HbKA5U-27" value="&amp;nbsp;query vector" style="rounded=0;whiteSpace=wrap;html=1;fillColor=#dae8fc;strokeColor=#6c8ebf;" vertex="1" parent="1">
          <mxGeometry x="720" y="337" width="120" height="60" as="geometry" />
        </mxCell>
        <mxCell id="Y74k4ZJzD4JUl2HbKA5U-38" style="edgeStyle=orthogonalEdgeStyle;rounded=0;orthogonalLoop=1;jettySize=auto;html=1;entryX=0;entryY=0.5;entryDx=0;entryDy=0;" edge="1" parent="1" source="Y74k4ZJzD4JUl2HbKA5U-31" target="Y74k4ZJzD4JUl2HbKA5U-37">
          <mxGeometry relative="1" as="geometry" />
        </mxCell>
        <mxCell id="Y74k4ZJzD4JUl2HbKA5U-31" value="EIOS&amp;nbsp;&lt;div&gt;VectorStore&lt;/div&gt;" style="shape=cylinder3;whiteSpace=wrap;html=1;boundedLbl=1;backgroundOutline=1;size=15;fillColor=#dae8fc;strokeColor=#6c8ebf;" vertex="1" parent="1">
          <mxGeometry x="750.0000000000002" y="510" width="90" height="120" as="geometry" />
        </mxCell>
        <mxCell id="Y74k4ZJzD4JUl2HbKA5U-42" value="" style="edgeStyle=orthogonalEdgeStyle;rounded=0;orthogonalLoop=1;jettySize=auto;html=1;" edge="1" parent="1" source="Y74k4ZJzD4JUl2HbKA5U-37" target="Y74k4ZJzD4JUl2HbKA5U-41">
          <mxGeometry relative="1" as="geometry" />
        </mxCell>
        <mxCell id="Y74k4ZJzD4JUl2HbKA5U-44" value="" style="edgeStyle=orthogonalEdgeStyle;rounded=0;orthogonalLoop=1;jettySize=auto;html=1;" edge="1" parent="1" source="Y74k4ZJzD4JUl2HbKA5U-37" target="Y74k4ZJzD4JUl2HbKA5U-43">
          <mxGeometry relative="1" as="geometry" />
        </mxCell>
        <mxCell id="Y74k4ZJzD4JUl2HbKA5U-37" value="selecionar" style="rounded=0;whiteSpace=wrap;html=1;fillColor=#d5e8d4;strokeColor=#82b366;" vertex="1" parent="1">
          <mxGeometry x="980" y="430" width="120" height="60" as="geometry" />
        </mxCell>
        <mxCell id="Y74k4ZJzD4JUl2HbKA5U-41" value="&lt;div&gt;&lt;br&gt;&lt;/div&gt;&lt;div&gt;&lt;br&gt;&lt;/div&gt;&lt;div&gt;&lt;br&gt;&lt;/div&gt;k-nn (cosine, eudlidian, k = {1, 2, 3, ...})&lt;div&gt;limiar&lt;/div&gt;&lt;div&gt;clustering&lt;/div&gt;&lt;div&gt;named-entity&lt;/div&gt;&lt;div&gt;I.A (Deep Metric Learn)&lt;/div&gt;" style="text;html=1;align=left;verticalAlign=middle;whiteSpace=wrap;rounded=0;" vertex="1" parent="1">
          <mxGeometry x="932.5" y="570" width="215" height="30" as="geometry" />
        </mxCell>
        <mxCell id="Y74k4ZJzD4JUl2HbKA5U-107" value="" style="edgeStyle=orthogonalEdgeStyle;rounded=0;orthogonalLoop=1;jettySize=auto;html=1;" edge="1" parent="1" source="Y74k4ZJzD4JUl2HbKA5U-43" target="Y74k4ZJzD4JUl2HbKA5U-106">
          <mxGeometry relative="1" as="geometry" />
        </mxCell>
        <mxCell id="Y74k4ZJzD4JUl2HbKA5U-43" value="Prompt&amp;nbsp;&lt;div&gt;&lt;font color=&quot;#6c8ebf&quot;&gt;- Query&lt;/font&gt;&lt;/div&gt;&lt;div&gt;&lt;font color=&quot;#6c8ebf&quot;&gt;- Context&lt;/font&gt;&lt;/div&gt;&lt;div&gt;&lt;font color=&quot;#ff0000&quot;&gt;- Instructions (R/I; Just)&lt;/font&gt;&lt;/div&gt;&lt;div&gt;&lt;br&gt;&lt;/div&gt;" style="rounded=0;whiteSpace=wrap;html=1;fillColor=#d5e8d4;strokeColor=#82b366;align=left;" vertex="1" parent="1">
          <mxGeometry x="1180" y="420" width="140" height="80" as="geometry" />
        </mxCell>
        <mxCell id="Y74k4ZJzD4JUl2HbKA5U-45" value="" style="sketch=0;outlineConnect=0;fillColor=#f8cecc;strokeColor=#b85450;dashed=0;verticalLabelPosition=bottom;verticalAlign=top;align=center;html=1;fontSize=12;fontStyle=0;aspect=fixed;pointerEvents=1;shape=mxgraph.aws4.documents;" vertex="1" parent="1">
          <mxGeometry x="478" y="650" width="64" height="78" as="geometry" />
        </mxCell>
        <mxCell id="Y74k4ZJzD4JUl2HbKA5U-53" style="edgeStyle=orthogonalEdgeStyle;rounded=0;orthogonalLoop=1;jettySize=auto;html=1;entryX=0.5;entryY=1;entryDx=0;entryDy=0;" edge="1" parent="1" source="Y74k4ZJzD4JUl2HbKA5U-48" target="Y74k4ZJzD4JUl2HbKA5U-18">
          <mxGeometry relative="1" as="geometry">
            <Array as="points">
              <mxPoint x="510" y="400" />
              <mxPoint x="510" y="400" />
            </Array>
          </mxGeometry>
        </mxCell>
        <mxCell id="Y74k4ZJzD4JUl2HbKA5U-65" value="resumo chunkenizado" style="edgeLabel;html=1;align=center;verticalAlign=middle;resizable=0;points=[];" vertex="1" connectable="0" parent="Y74k4ZJzD4JUl2HbKA5U-53">
          <mxGeometry x="-0.6326" y="-2" relative="1" as="geometry">
            <mxPoint as="offset" />
          </mxGeometry>
        </mxCell>
        <mxCell id="Y74k4ZJzD4JUl2HbKA5U-48" value="" style="shape=cylinder3;whiteSpace=wrap;html=1;boundedLbl=1;backgroundOutline=1;size=15;fillColor=none;strokeColor=#b85450;" vertex="1" parent="1">
          <mxGeometry x="460" y="615" width="100" height="130" as="geometry" />
        </mxCell>
        <mxCell id="Y74k4ZJzD4JUl2HbKA5U-59" value="" style="edgeStyle=orthogonalEdgeStyle;rounded=0;orthogonalLoop=1;jettySize=auto;html=1;fillColor=#f8cecc;strokeColor=#b85450;" edge="1" parent="1" source="Y74k4ZJzD4JUl2HbKA5U-57" target="Y74k4ZJzD4JUl2HbKA5U-48">
          <mxGeometry relative="1" as="geometry" />
        </mxCell>
        <mxCell id="Y74k4ZJzD4JUl2HbKA5U-57" value="chunks" style="rhombus;whiteSpace=wrap;html=1;fillColor=#f8cecc;strokeColor=#b85450;" vertex="1" parent="1">
          <mxGeometry x="330" y="640" width="80" height="80" as="geometry" />
        </mxCell>
        <mxCell id="Y74k4ZJzD4JUl2HbKA5U-60" value="EIOS&lt;div&gt;Chunkenizado&lt;/div&gt;" style="text;html=1;align=center;verticalAlign=middle;resizable=0;points=[];autosize=1;strokeColor=none;fillColor=none;" vertex="1" parent="1">
          <mxGeometry x="460" y="750" width="100" height="40" as="geometry" />
        </mxCell>
        <mxCell id="Y74k4ZJzD4JUl2HbKA5U-66" value="" style="whiteSpace=wrap;html=1;aspect=fixed;imageWidth=10;imageHeight=10;" vertex="1" parent="1">
          <mxGeometry x="705" y="220" width="30" height="30" as="geometry" />
        </mxCell>
        <mxCell id="Y74k4ZJzD4JUl2HbKA5U-67" value="" style="whiteSpace=wrap;html=1;aspect=fixed;imageWidth=10;imageHeight=10;" vertex="1" parent="1">
          <mxGeometry x="735" y="220" width="30" height="30" as="geometry" />
        </mxCell>
        <mxCell id="Y74k4ZJzD4JUl2HbKA5U-71" style="edgeStyle=orthogonalEdgeStyle;rounded=0;orthogonalLoop=1;jettySize=auto;html=1;entryX=0.5;entryY=0;entryDx=0;entryDy=0;" edge="1" parent="1" source="Y74k4ZJzD4JUl2HbKA5U-68" target="Y74k4ZJzD4JUl2HbKA5U-27">
          <mxGeometry relative="1" as="geometry" />
        </mxCell>
        <mxCell id="Y74k4ZJzD4JUl2HbKA5U-68" value="" style="whiteSpace=wrap;html=1;aspect=fixed;imageWidth=10;imageHeight=10;" vertex="1" parent="1">
          <mxGeometry x="765" y="220" width="30" height="30" as="geometry" />
        </mxCell>
        <mxCell id="Y74k4ZJzD4JUl2HbKA5U-69" value="" style="whiteSpace=wrap;html=1;aspect=fixed;imageWidth=10;imageHeight=10;" vertex="1" parent="1">
          <mxGeometry x="795" y="220" width="30" height="30" as="geometry" />
        </mxCell>
        <mxCell id="Y74k4ZJzD4JUl2HbKA5U-70" value="" style="whiteSpace=wrap;html=1;aspect=fixed;imageWidth=10;imageHeight=10;" vertex="1" parent="1">
          <mxGeometry x="825" y="220" width="30" height="30" as="geometry" />
        </mxCell>
        <mxCell id="Y74k4ZJzD4JUl2HbKA5U-72" value="" style="whiteSpace=wrap;html=1;aspect=fixed;imageWidth=10;imageHeight=10;" vertex="1" parent="1">
          <mxGeometry x="720" y="665" width="30" height="30" as="geometry" />
        </mxCell>
        <mxCell id="Y74k4ZJzD4JUl2HbKA5U-73" value="" style="whiteSpace=wrap;html=1;aspect=fixed;imageWidth=10;imageHeight=10;" vertex="1" parent="1">
          <mxGeometry x="750" y="665" width="30" height="30" as="geometry" />
        </mxCell>
        <mxCell id="Y74k4ZJzD4JUl2HbKA5U-74" value="" style="whiteSpace=wrap;html=1;aspect=fixed;imageWidth=10;imageHeight=10;" vertex="1" parent="1">
          <mxGeometry x="780" y="665" width="30" height="30" as="geometry" />
        </mxCell>
        <mxCell id="Y74k4ZJzD4JUl2HbKA5U-75" value="" style="whiteSpace=wrap;html=1;aspect=fixed;imageWidth=10;imageHeight=10;" vertex="1" parent="1">
          <mxGeometry x="810" y="665" width="30" height="30" as="geometry" />
        </mxCell>
        <mxCell id="Y74k4ZJzD4JUl2HbKA5U-76" value="" style="whiteSpace=wrap;html=1;aspect=fixed;imageWidth=10;imageHeight=10;" vertex="1" parent="1">
          <mxGeometry x="840" y="665" width="30" height="30" as="geometry" />
        </mxCell>
        <mxCell id="Y74k4ZJzD4JUl2HbKA5U-78" value="" style="whiteSpace=wrap;html=1;aspect=fixed;imageWidth=10;imageHeight=10;" vertex="1" parent="1">
          <mxGeometry x="730" y="675" width="30" height="30" as="geometry" />
        </mxCell>
        <mxCell id="Y74k4ZJzD4JUl2HbKA5U-79" value="" style="whiteSpace=wrap;html=1;aspect=fixed;imageWidth=10;imageHeight=10;" vertex="1" parent="1">
          <mxGeometry x="760" y="675" width="30" height="30" as="geometry" />
        </mxCell>
        <mxCell id="Y74k4ZJzD4JUl2HbKA5U-80" value="" style="whiteSpace=wrap;html=1;aspect=fixed;imageWidth=10;imageHeight=10;" vertex="1" parent="1">
          <mxGeometry x="790" y="675" width="30" height="30" as="geometry" />
        </mxCell>
        <mxCell id="Y74k4ZJzD4JUl2HbKA5U-81" value="" style="whiteSpace=wrap;html=1;aspect=fixed;imageWidth=10;imageHeight=10;" vertex="1" parent="1">
          <mxGeometry x="820" y="675" width="30" height="30" as="geometry" />
        </mxCell>
        <mxCell id="Y74k4ZJzD4JUl2HbKA5U-82" value="" style="whiteSpace=wrap;html=1;aspect=fixed;imageWidth=10;imageHeight=10;" vertex="1" parent="1">
          <mxGeometry x="850" y="675" width="30" height="30" as="geometry" />
        </mxCell>
        <mxCell id="Y74k4ZJzD4JUl2HbKA5U-83" value="" style="whiteSpace=wrap;html=1;aspect=fixed;imageWidth=10;imageHeight=10;" vertex="1" parent="1">
          <mxGeometry x="740" y="685" width="30" height="30" as="geometry" />
        </mxCell>
        <mxCell id="Y74k4ZJzD4JUl2HbKA5U-84" value="" style="whiteSpace=wrap;html=1;aspect=fixed;imageWidth=10;imageHeight=10;" vertex="1" parent="1">
          <mxGeometry x="770" y="685" width="30" height="30" as="geometry" />
        </mxCell>
        <mxCell id="Y74k4ZJzD4JUl2HbKA5U-85" value="" style="whiteSpace=wrap;html=1;aspect=fixed;imageWidth=10;imageHeight=10;" vertex="1" parent="1">
          <mxGeometry x="800" y="685" width="30" height="30" as="geometry" />
        </mxCell>
        <mxCell id="Y74k4ZJzD4JUl2HbKA5U-86" value="" style="whiteSpace=wrap;html=1;aspect=fixed;imageWidth=10;imageHeight=10;" vertex="1" parent="1">
          <mxGeometry x="830" y="685" width="30" height="30" as="geometry" />
        </mxCell>
        <mxCell id="Y74k4ZJzD4JUl2HbKA5U-87" value="" style="whiteSpace=wrap;html=1;aspect=fixed;imageWidth=10;imageHeight=10;" vertex="1" parent="1">
          <mxGeometry x="860" y="685" width="30" height="30" as="geometry" />
        </mxCell>
        <mxCell id="Y74k4ZJzD4JUl2HbKA5U-88" value="" style="whiteSpace=wrap;html=1;aspect=fixed;imageWidth=10;imageHeight=10;" vertex="1" parent="1">
          <mxGeometry x="750" y="695" width="30" height="30" as="geometry" />
        </mxCell>
        <mxCell id="Y74k4ZJzD4JUl2HbKA5U-89" value="" style="whiteSpace=wrap;html=1;aspect=fixed;imageWidth=10;imageHeight=10;" vertex="1" parent="1">
          <mxGeometry x="780" y="695" width="30" height="30" as="geometry" />
        </mxCell>
        <mxCell id="Y74k4ZJzD4JUl2HbKA5U-90" value="" style="whiteSpace=wrap;html=1;aspect=fixed;imageWidth=10;imageHeight=10;" vertex="1" parent="1">
          <mxGeometry x="810" y="695" width="30" height="30" as="geometry" />
        </mxCell>
        <mxCell id="Y74k4ZJzD4JUl2HbKA5U-91" value="" style="whiteSpace=wrap;html=1;aspect=fixed;imageWidth=10;imageHeight=10;" vertex="1" parent="1">
          <mxGeometry x="840" y="695" width="30" height="30" as="geometry" />
        </mxCell>
        <mxCell id="Y74k4ZJzD4JUl2HbKA5U-92" value="" style="whiteSpace=wrap;html=1;aspect=fixed;imageWidth=10;imageHeight=10;" vertex="1" parent="1">
          <mxGeometry x="870" y="695" width="30" height="30" as="geometry" />
        </mxCell>
        <mxCell id="Y74k4ZJzD4JUl2HbKA5U-93" value="" style="whiteSpace=wrap;html=1;aspect=fixed;imageWidth=10;imageHeight=10;" vertex="1" parent="1">
          <mxGeometry x="760" y="705" width="30" height="30" as="geometry" />
        </mxCell>
        <mxCell id="Y74k4ZJzD4JUl2HbKA5U-94" value="" style="whiteSpace=wrap;html=1;aspect=fixed;imageWidth=10;imageHeight=10;" vertex="1" parent="1">
          <mxGeometry x="790" y="705" width="30" height="30" as="geometry" />
        </mxCell>
        <mxCell id="Y74k4ZJzD4JUl2HbKA5U-95" value="" style="whiteSpace=wrap;html=1;aspect=fixed;imageWidth=10;imageHeight=10;" vertex="1" parent="1">
          <mxGeometry x="820" y="705" width="30" height="30" as="geometry" />
        </mxCell>
        <mxCell id="Y74k4ZJzD4JUl2HbKA5U-96" value="" style="whiteSpace=wrap;html=1;aspect=fixed;imageWidth=10;imageHeight=10;" vertex="1" parent="1">
          <mxGeometry x="850" y="705" width="30" height="30" as="geometry" />
        </mxCell>
        <mxCell id="Y74k4ZJzD4JUl2HbKA5U-97" value="" style="whiteSpace=wrap;html=1;aspect=fixed;imageWidth=10;imageHeight=10;" vertex="1" parent="1">
          <mxGeometry x="880" y="705" width="30" height="30" as="geometry" />
        </mxCell>
        <mxCell id="Y74k4ZJzD4JUl2HbKA5U-98" style="edgeStyle=orthogonalEdgeStyle;rounded=0;orthogonalLoop=1;jettySize=auto;html=1;entryX=0.5;entryY=1;entryDx=0;entryDy=0;entryPerimeter=0;" edge="1" parent="1" source="Y74k4ZJzD4JUl2HbKA5U-74" target="Y74k4ZJzD4JUl2HbKA5U-31">
          <mxGeometry relative="1" as="geometry" />
        </mxCell>
        <mxCell id="Y74k4ZJzD4JUl2HbKA5U-99" value="" style="whiteSpace=wrap;html=1;aspect=fixed;imageWidth=10;imageHeight=10;" vertex="1" parent="1">
          <mxGeometry x="589" y="708" width="10" height="10" as="geometry" />
        </mxCell>
        <mxCell id="Y74k4ZJzD4JUl2HbKA5U-100" value="" style="whiteSpace=wrap;html=1;aspect=fixed;imageWidth=10;imageHeight=10;" vertex="1" parent="1">
          <mxGeometry x="599" y="708" width="10" height="10" as="geometry" />
        </mxCell>
        <mxCell id="Y74k4ZJzD4JUl2HbKA5U-101" value="" style="whiteSpace=wrap;html=1;aspect=fixed;imageWidth=10;imageHeight=10;" vertex="1" parent="1">
          <mxGeometry x="609" y="708" width="10" height="10" as="geometry" />
        </mxCell>
        <mxCell id="Y74k4ZJzD4JUl2HbKA5U-102" value="" style="whiteSpace=wrap;html=1;aspect=fixed;imageWidth=10;imageHeight=10;" vertex="1" parent="1">
          <mxGeometry x="619" y="708" width="10" height="10" as="geometry" />
        </mxCell>
        <mxCell id="Y74k4ZJzD4JUl2HbKA5U-103" value="" style="whiteSpace=wrap;html=1;aspect=fixed;imageWidth=10;imageHeight=10;" vertex="1" parent="1">
          <mxGeometry x="629" y="708" width="10" height="10" as="geometry" />
        </mxCell>
        <mxCell id="Y74k4ZJzD4JUl2HbKA5U-105" value="" style="endArrow=classic;html=1;rounded=0;entryX=0;entryY=0.5;entryDx=0;entryDy=0;exitX=0.7;exitY=0.654;exitDx=0;exitDy=0;exitPerimeter=0;" edge="1" parent="1" source="Y74k4ZJzD4JUl2HbKA5U-48" target="Y74k4ZJzD4JUl2HbKA5U-99">
          <mxGeometry width="50" height="50" relative="1" as="geometry">
            <mxPoint x="590" y="680" as="sourcePoint" />
            <mxPoint x="542" y="702.5" as="targetPoint" />
          </mxGeometry>
        </mxCell>
        <mxCell id="Y74k4ZJzD4JUl2HbKA5U-106" value="saída" style="ellipse;whiteSpace=wrap;html=1;align=center;rounded=0;" vertex="1" parent="1">
          <mxGeometry x="1430" y="420" width="80" height="80" as="geometry" />
        </mxCell>
      </root>
    </mxGraphModel>
  </diagram>
</mxfile>
